<svg width="117" height="21" viewBox="0 0 117 21" fill="none" xmlns="http://www.w3.org/2000/svg">
<path d="M20.6143 8.24518C16.7939 8.24518 13.3685 9.99749 11.0708 12.7548H0C3.82039 12.7548 7.24575 11.0025 9.54344 8.24518H20.6143Z" fill="#172AAF"/>
<path d="M12.5192 0C12.5192 3.14152 11.4 6.02053 9.54344 8.24518C7.24575 11.0035 3.81945 12.7548 0 12.7548V8.24518C4.4637 8.24518 8.09504 4.5451 8.09504 0H12.5192Z" fill="#F668F2"/>
<path d="M20.6143 8.24518V12.7548C16.1506 12.7548 12.5192 16.4549 12.5192 21H8.09504C8.09504 17.8585 9.21426 14.9795 11.0708 12.7548C13.3685 9.99653 16.7948 8.24518 20.6143 8.24518Z" fill="#F668F2"/>
<path d="M39.4382 3.41601C38.3707 2.47902 36.9477 1.99902 35.1692 1.99902C31.1607 1.99902 29.1687 4.20834 29.1687 8.60302V12.397C29.1687 16.7917 31.1852 19.001 35.1222 19.001C39.0592 19.001 41.0277 16.8875 41.0277 12.6375V9.80348H35.0977V12.397H37.9917V13.1893C37.9917 14.1982 37.7782 14.9426 37.3512 15.4465C36.9007 15.9505 36.2122 16.191 35.2642 16.191C34.2447 16.191 33.5092 15.8786 33.0342 15.2789C32.5358 14.6782 32.2987 13.7182 32.2987 12.3491V8.77068C32.2987 7.35369 32.5358 6.32089 32.9863 5.69718C33.4368 5.07252 34.1487 4.76019 35.1448 4.76019C36.0223 4.76019 36.7098 5.00067 37.2083 5.50461C37.6823 6.00856 37.9202 6.63322 37.9202 7.37764V7.54531H41.0277V7.37764C41.0277 5.69623 40.5057 4.376 39.4382 3.41506V3.41601Z" fill="black"/>
<path d="M42.5589 18.8094H52.9478V16.0722H45.6663V11.8212H51.8803V9.08397H45.6663V4.97671H52.9478V2.2395H42.5589V18.8094Z" fill="black"/>
<path d="M63.507 12.6135L57.4821 2.2395H54.3755V18.8094H57.4821V8.45931L63.507 18.8094H66.6145V2.2395H63.507V12.6135Z" fill="black"/>
<path d="M79.8269 9.80444H73.8969V12.3979H76.7909V13.1903C76.7909 14.1991 76.5774 14.9435 76.1504 15.4475C75.6999 15.9514 75.0115 16.1919 74.0634 16.1919C73.043 16.1919 72.3084 15.8796 71.8334 15.2798C71.335 14.6791 71.098 13.7191 71.098 12.35V8.77164C71.098 7.35465 71.335 6.32185 71.7855 5.69814C72.236 5.07348 72.948 4.76115 73.944 4.76115C74.8215 4.76115 75.5099 5.00162 76.0075 5.50557C76.4815 6.00952 76.7185 6.63418 76.7185 7.3786V7.54626H79.826V7.3786C79.826 5.69718 79.304 4.37696 78.2365 3.41601C77.169 2.47902 75.7469 1.99902 73.9675 1.99902C69.959 1.99902 67.967 4.20834 67.967 8.60302V12.397C67.967 16.7917 69.9825 19.001 73.9195 19.001C77.8565 19.001 79.826 16.8875 79.826 12.6375V9.80348L79.8269 9.80444Z" fill="black"/>
<path d="M85.2189 2.2395L79.4084 18.8094H82.6814L83.6774 15.5912H89.2998L90.2958 18.8094H93.5933L87.7583 2.2395H85.2189ZM84.5079 12.9747L86.4764 6.61119L88.4684 12.9747H84.5079Z" fill="black"/>
<path d="M103.546 3.41601C102.478 2.47902 101.056 1.99902 99.2768 1.99902C95.2683 1.99902 93.2754 4.20834 93.2754 8.60302V12.397C93.2754 16.7917 95.2918 19.001 99.2289 19.001C103.166 19.001 105.135 16.8875 105.135 12.6375V9.80348H99.2053V12.397H102.099V13.1893C102.099 14.1982 101.886 14.9426 101.459 15.4465C101.008 15.9505 100.32 16.191 99.3709 16.191C98.3514 16.191 97.6159 15.8786 97.1419 15.2789C96.6434 14.6782 96.4064 13.7182 96.4064 12.3491V8.77068C96.4064 7.35369 96.6434 6.32089 97.0939 5.69718C97.5444 5.07252 98.2554 4.76019 99.2524 4.76019C100.13 4.76019 100.818 5.00067 101.316 5.50461C101.791 6.00856 102.028 6.63322 102.028 7.37764V7.54531H105.135V7.37764C105.135 5.69623 104.613 4.376 103.546 3.41506V3.41601Z" fill="black"/>
<path d="M117 4.97671V2.2395H106.611V18.8094H117V16.0722H109.718V11.8212H115.932V9.08397H109.718V4.97671H117Z" fill="black"/>
</svg>
